<svg width="64" height="64" viewBox="0 0 64 64" fill="none" xmlns="http://www.w3.org/2000/svg">
  <path d="M15 20C15 17.7909 16.7909 16 19 16H19C21.2091 16 23 17.7909 23 20V44C23 46.2091 21.2091 48 19 48H19C16.7909 48 15 46.2091 15 44V20Z" fill="#000000" />
  <path d="M28 14C28 11.7909 29.7909 10 32 10H32C34.2091 10 36 11.7909 36 14V44C36 46.2091 34.2091 48 32 48H32C29.7909 48 28 46.2091 28 44V14Z" fill="#000000" />
  <path d="M41 24C41 21.7909 42.7909 20 45 20H45C47.2091 20 49 21.7909 49 24V44C49 46.2091 47.2091 48 45 48H45C42.7909 48 41 46.2091 41 44V24Z" fill="#000000" />
  <path d="M14 42L25.5 31L34.5 35L49 20.5" stroke="#000000" stroke-width="4.5" stroke-linecap="round" stroke-linejoin="round" />
  <circle cx="49" cy="20.5" r="3.5" fill="#000000" />
</svg>
